#!OML:ASF E:\motion texture\Top Level 1\Subject 1\Session 1\male.ASF
:FULLY-SPECIFIED
:DEGREES
193
root 6.23094 18.1363 3.4072 90.6884 -79.6322 -84.9657
lowerback -1.13038 0.169032 7.2814
upperback -1.37084 0.114663 3.17504
thorax -0.769809 -0.0291558 -0.805213
lowerneck -8.62057 -7.7415 -6.47336
upperneck 17.5855 -12.3671 11.8141
head 7.9972 -5.51337 3.68641
rclavicle 2.04997e-015 -2.59414e-014
rhumerus 19.1283 11.647 5.99345
rradius 113.893
rwrist -43.0452
rhand 1.06 -34.0097
rfingers 7.12502
rthumb 26.6053 -62.1606
lclavicle 2.04997e-015 -2.59414e-014
lhumerus -35.6643 13.2489 75.8413
lradius 30.829
lwrist -21.5104
lhand -12.0077 16.6443
lfingers 7.12502
lthumb 14.0496 46.1495
rfemur -7.55924 2.63353 34.4306
rtibia 13.8294
rfoot -8.04965 -4.97744
rtoes 21.6853
lfemur -26.0719 2.70437 -4.76205
ltibia 58.5878
lfoot -5.70959 0.687718
ltoes -14.2079
194
root 6.11772 18.1337 3.40134 90.8915 -79.6239 -85.1124
lowerback -1.09456 0.242721 7.26504
upperback -1.40502 0.220734 3.10054
thorax -0.817978 0.0224478 -0.872438
lowerneck -8.53463 -7.7571 -6.54308
upperneck 17.3419 -12.3469 11.8487
head 7.90587 -5.51304 3.71489
rclavicle -1.18028e-015 0
rhumerus 18.1044 13.6552 4.55623
rradius 113.808
rwrist -40.3355
rhand 0.681459 -33.8598
rfingers 7.12502
rthumb 26.2429 -62.0651
lclavicle -1.18028e-015 0
lhumerus -35.5633 13.1482 76.1142
lradius 30.9287
lwrist -21.4733
lhand -12.0858 16.6209
lfingers 7.12502
lthumb 13.9743 46.1313
rfemur -7.12702 2.72801 34.5172
rtibia 13.6662
rfoot -8.31006 -5.08472
rtoes 21.444
lfemur -26.8922 2.80451 -4.73756
ltibia 57.7348
lfoot -6.36851 1.0305
ltoes -14.5217
195
root 6.0049 18.1302 3.396 91.1089 -79.6288 -85.2657
lowerback -1.05587 0.302584 7.22732
upperback -1.44962 0.309298 3.02951
thorax -0.879604 0.064895 -0.924453
lowerneck -8.44219 -7.75839 -6.63096
upperneck 17.1235 -12.306 11.8725
head 7.82013 -5.50458 3.74551
rclavicle -1.06847e-015 2.34566e-014
rhumerus 16.9988 15.6118 2.86863
rradius 113.723
rwrist -37.4676
rhand 0.155343 -33.6532
rfingers 7.12502
rthumb 25.7392 -61.9325
lclavicle -1.06847e-015 2.34566e-014
lhumerus -35.5045 13.0755 76.3746
lradius 31.031
lwrist -21.4214
lhand -12.1425 16.62
lfingers 7.12502
lthumb 13.9197 46.1341
rfemur -6.7205 2.84093 34.592
rtibia 13.5337
rfoot -8.58103 -5.21127
rtoes 21.1833
lfemur -27.6717 2.89131 -4.7197
ltibia 56.7558
lfoot -6.93785 1.39132
ltoes -14.6793
196
root 5.89239 18.126 3.39101 91.339 -79.6469 -85.4272
lowerback -1.00798 0.353005 7.17146
upperback -1.51287 0.387316 2.95663
thorax -0.966372 0.101159 -0.96853
lowerneck -8.31463 -7.74618 -6.72927
upperneck 16.9223 -12.2479 11.8865
head 7.73201 -5.49056 3.77797
rclavicle -2.29845e-015 2.70347e-014
rhumerus 15.7872 17.5308 0.925779
rradius 113.626
rwrist -34.5187
rhand -0.506652 -33.3835
rfingers 7.12502
rthumb 25.105 -61.7531
lclavicle -2.29845e-015 2.70347e-014
lhumerus -35.5038 13.0057 76.6182
lradius 31.1355
lwrist -21.3516
lhand -12.1739 16.6627
lfingers 7.12502
lthumb 13.8894 46.1789
rfemur -6.33378 2.97144 34.6546
rtibia 13.4317
rfoot -8.8634 -5.36301
rtoes 20.8885
lfemur -28.4019 2.96186 -4.70605
ltibia 55.6482
lfoot -7.44175 1.77337
ltoes -14.7655
197
root 5.77995 18.121 3.38637 91.5794 -79.6778 -85.5947
lowerback -0.950193 0.400174 7.1028
upperback -1.57645 0.461991 2.8784
thorax -1.05923 0.1358 -1.01123
lowerneck -8.22604 -7.73315 -6.82328
upperneck 16.7507 -12.1882 11.8827
head 7.65915 -5.47423 3.80252
rclavicle -5.26158e-015 4.13472e-014
rhumerus 14.4392 19.3549 -1.26029
rradius 113.518
rwrist -31.578
rhand -1.26803 -33.033
rfingers 7.12502
rthumb 24.3753 -61.5027
lclavicle -5.26158e-015 4.13472e-014
lhumerus -35.511 12.9193 76.8633
lradius 31.235
lwrist -21.2562
lhand -12.1827 16.6994
lfingers 7.12502
lthumb 13.8809 46.2162
rfemur -5.96411 3.11426 34.7037
rtibia 13.3577
rfoot -9.15295 -5.53111
rtoes 20.5792
lfemur -29.0753 3.01103 -4.69385
ltibia 54.4052
lfoot -7.8853 2.17413
ltoes -14.8464
198
root 5.6675 18.1151 3.382 91.838 -79.7173 -85.7748
lowerback -0.903468 0.450986 7.02752
upperback -1.63446 0.539975 2.79284
thorax -1.13981 0.172707 -1.05792
lowerneck -8.13968 -7.72145 -6.9128
upperneck 16.5771 -12.1294 11.8719
head 7.58553 -5.45832 3.8238
rclavicle 6.08778e-016 -7.95139e-015
rhumerus 12.9355 21.0756 -3.68949
rradius 113.378
rwrist -28.6502
rhand -2.09263 -32.5702
rfingers 7.12502
rthumb 23.5845 -61.1439
lclavicle 6.08778e-016 -7.95139e-015
lhumerus -35.5108 12.8184 77.1085
lradius 31.3153
lwrist -21.1648
lhand -12.1701 16.7603
lfingers 7.12502
lthumb 13.8931 46.2762
rfemur -5.61029 3.264 34.7421
rtibia 13.3069
rfoot -9.44589 -5.70697
rtoes 20.2699
lfemur -29.6869 3.0354 -4.67511
ltibia 53.0213
lfoot -8.26437 2.59768
ltoes -14.9486
199
root 5.55492 18.1084 3.37804 92.0992 -79.7634 -85.9505
lowerback -0.854514 0.506266 6.95094
upperback -1.68752 0.623708 2.69944
thorax -1.21598 0.212794 -1.11209
lowerneck -8.08666 -7.71488 -6.99994
upperneck 16.414 -12.0771 11.8563
head 7.52171 -5.4437 3.84108
rclavicle 3.60297e-016 3.95581e-014
rhumerus 11.263 22.6575 -6.35715
rradius 113.212
rwrist -25.7533
rhand -2.8708 -31.9841
rfingers 7.12502
rthumb 22.838 -60.6519
lclavicle 3.60297e-016 3.95581e-014
lhumerus -35.4886 12.711 77.3518
lradius 31.3593
lwrist -21.0997
lhand -12.1497 16.7929
lfingers 7.12502
lthumb 13.9127 46.3075
rfemur -5.27309 3.41068 34.7692
rtibia 13.2776
rfoot -9.74251 -5.87982
rtoes 19.9621
lfemur -30.2338 3.02754 -4.64631
ltibia 51.4914
lfoot -8.58135 3.03964
ltoes -15.0844
200
root 5.4421 18.1008 3.37446 92.3718 -79.8129 -86.1309
lowerback -0.793116 0.566005 6.87443
upperback -1.74931 0.714812 2.59852
thorax -1.30751 0.255962 -1.17434
lowerneck -8.03512 -7.71079 -7.08182
upperneck 16.2586 -12.0291 11.8339
head 7.46048 -5.43104 3.85466
rclavicle 3.27995e-015 -2.50469e-014
rhumerus 9.41507 24.1056 -9.26465
rradius 112.996
rwrist -22.8547
rhand -3.58913 -31.228
rfingers 7.12502
rthumb 22.1485 -59.9793
lclavicle 3.27995e-015 -2.50469e-014
lhumerus -35.4708 12.6156 77.574
lradius 31.3601
lwrist -21.0913
lhand -12.1404 16.7165
lfingers 7.12502
lthumb 13.9217 46.2304
rfemur -4.95153 3.54659 34.7866
rtibia 13.2679
rfoot -10.042 -6.03688
rtoes 19.654
lfemur -30.7115 2.98679 -4.60189
ltibia 49.8122
lfoot -8.81832 3.48459
ltoes -15.2217
201
root 5.32892 18.0922 3.37128 92.6583 -79.8595 -86.3162
lowerback -0.744205 0.626876 6.80104
upperback -1.79771 0.805169 2.49529
thorax -1.37804 0.299598 -1.24073
lowerneck -8.01843 -7.7086 -7.1633
upperneck 16.1026 -11.9823 11.8139
head 7.40566 -5.41693 3.86752
rclavicle 3.14328e-015 -5.48646e-014
rhumerus 7.42369 25.3635 -12.4039
rradius 112.71
rwrist -19.898
rhand -4.22857 -30.284
rfingers 7.12502
rthumb 21.5345 -59.1068
lclavicle 3.14328e-015 -5.48646e-014
lhumerus -35.4204 12.5491 77.7858
lradius 31.3275
lwrist -21.127
lhand -12.1222 16.6363
lfingers 7.12502
lthumb 13.9392 46.149
rfemur -4.64706 3.67331 34.801
rtibia 13.2748
rfoot -10.3406 -6.173
rtoes 19.3538
lfemur -31.1207 2.91231 -4.53216
ltibia 47.9832
lfoot -8.96517 3.92847
ltoes -15.3386
202
root 5.21507 18.0828 3.36854 92.9636 -79.9016 -86.5125
lowerback -0.696646 0.688811 6.72399
upperback -1.85082 0.896639 2.39498
thorax -1.45258 0.343585 -1.30224
lowerneck -7.99257 -7.70546 -7.24994
upperneck 15.9458 -11.9339 11.793
head 7.34913 -5.40279 3.88144
rclavicle -8.93289e-015 -1.66979e-014
rhumerus 5.28784 26.4373 -15.7589
rradius 112.348
rwrist -16.8724
rhand -4.77855 -29.1692
rfingers 7.12502
rthumb 21.0062 -58.0516
lclavicle -8.93289e-015 -1.66979e-014
lhumerus -35.3834 12.5017 77.9832
lradius 31.2764
lwrist -21.1993
lhand -12.1008 16.5195
lfingers 7.12502
lthumb 13.9599 46.0309
rfemur -4.35323 3.78719 34.8138
rtibia 13.2899
rfoot -10.6367 -6.28982
rtoes 19.0191
lfemur -31.46 2.806 -4.43523
ltibia 46.0063
lfoot -8.99953 4.36325
ltoes -15.4405
203
root 5.10048 18.0726 3.36631 93.2912 -79.9377 -86.7214
lowerback -0.664213 0.745576 6.64735
upperback -1.89726 0.979057 2.30012
thorax -1.51233 0.383567 -1.35826
lowerneck -7.97993 -7.69722 -7.35004
upperneck 15.7899 -11.8772 11.7777
head 7.29562 -5.38417 3.89983
rclavicle -2.47238e-015 -3.22031e-014
rhumerus 3.05509 27.297 -19.2995
rradius 111.891
rwrist -13.7667
rhand -5.2641 -27.9068
rfingers 7.12502
rthumb 20.5396 -56.8402
lclavicle -2.47238e-015 -3.22031e-014
lhumerus -35.3481 12.4861 78.1653
lradius 31.2215
lwrist -21.289
lhand -12.077 16.4051
lfingers 7.12502
lthumb 13.9828 45.9149
rfemur -4.07268 3.88515 34.8256
rtibia 13.3126
rfoot -10.9273 -6.37504
rtoes 18.6654
lfemur -31.7332 2.66462 -4.30878
ltibia 43.8845
lfoot -8.90274 4.78979
ltoes -15.5218
